# xmcd
#
# Track frame offsets:
#	150
#	16130
#	31550
#	49864
#	62548
#	75970
#	90927
#	104625
#	122443
#	144038
#	162520
#	178937
#	196323
#
# Disc length: 2940 seconds
#
# Revision: 0
# Processed by: cddbd v1.5.2PL0 Copyright (c) Steve Scherf et al.
# Submitted via: EZCDAudioConverter 1.1.0.1
#
DISCID=930b7a0d
DTITLE=BASILIS KARRAS - 39 MEGALA TRAGOUDIA OASOS 88 CD 3
DYEAR=1900
DGENRE=
TTITLE0=ENA TRAGOUDI PES MOU AKOMA
TTITLE1=POIOS TO PISTEYE
TTITLE2=APOPSE SIOPILOI
TTITLE3=MAS YPOXREOSES
TTITLE4=MANA MOY , DE MOU TO EIPES
TTITLE5=DE SE EDIAFERI
TTITLE6=STIN AKRI TIS ABYSSOY
TTITLE7=OLA ENA PSEMA
TTITLE8=EMEIS OI DYO
TTITLE9=EKEI PSILA
TTITLE10=GIA LEGE
TTITLE11=TA XILIOMETRA
TTITLE12=PONTIAKOS YMNOS
EXTD=
EXTT0=
EXTT1=
EXTT2=
EXTT3=
EXTT4=
EXTT5=
EXTT6=
EXTT7=
EXTT8=
EXTT9=
EXTT10=
EXTT11=
EXTT12=
PLAYORDER=
